<?xml version="1.0" encoding="utf-8"?><!-- Generator: Adobe Illustrator 26.0.1, SVG Export Plug-In . SVG Version: 6.00 Build 0)  -->
<svg xmlns:xlink="http://www.w3.org/1999/xlink" style="enable-background:new 0 0 24 24;"
    id="Layer_1" version="1.1" viewBox="0 0 24 24" x="0px" xmlns="http://www.w3.org/2000/svg"
    y="0px" xml:space="preserve">
<style type="text/css">
	.st0{display:none;}
	.st1{fill:none;stroke:#000000;stroke-width:1.5;stroke-linecap:round;stroke-linejoin:round;stroke-dasharray:11.2222,37.4074;}
	.st2{fill:none;stroke:#000000;stroke-width:1.5;stroke-linecap:round;stroke-linejoin:round;stroke-dasharray:0,48.6296;}
</style>
    <g class="st0" id="Ref">
	
		<image style="display:inline;overflow:visible;" height="512"
            transform="matrix(4.687500e-02 0 0 4.687500e-02 0 0)" width="512"
            xlink:href="../app/src/main/ic_launcher-playstore.png">
	</image>

        <image style="display:inline;overflow:visible;" height="512"
            transform="matrix(4.687500e-02 0 0 4.687500e-02 0 0)" width="512"
            xlink:href="../app/src/main/ic_launcher-playstore.png">
	</image>
</g>
    <g id="Disk">
	<path d="M12,9.7c1.3,0,2.3,1,2.3,2.3s-1,2.3-2.3,2.3s-2.3-1-2.3-2.3S10.7,9.7,12,9.7 M12,6.5C9,6.5,6.5,9,6.5,12S9,17.5,12,17.5
		s5.5-2.5,5.5-5.5S15,6.5,12,6.5L12,6.5z" />
</g>
    <g id="Glare">
	<path class="st1"
        d="M12,4.3c4.3,0,7.7,3.5,7.7,7.7C19.3,22.3,4.7,22.3,4.3,12C4.3,7.7,7.7,4.3,12,4.3L12,4.3z" />
</g>
    <g id="Spot">
	<path class="st2"
        d="M19.5,13.8c-1,4.2-5.2,6.7-9.4,5.7C0.3,16.7,3.8,2.4,13.8,4.5C18,5.5,20.5,9.7,19.5,13.8L19.5,13.8z" />
</g>
</svg>
