<?xml version="1.0" encoding="UTF-8"?>
<svg id="Layer_1" viewBox="0 0 24 24" xmlns="http://www.w3.org/2000/svg">
    <defs>
        <style>.cls-1{fill:#231f20;}</style>
    </defs>
    <path class="cls-1" d="m12,1.82C6.38,1.82,1.82,6.38,1.82,12s4.56,10.18,10.18,10.18,10.18-4.56,10.18-10.18S17.62,1.82,12,1.82Zm-.06,1.68h.06c4.29,0,7.92,3.21,8.43,7.46.05.41-.24.79-.65.84h-.09c-.38,0-.7-.28-.75-.66-.42-3.5-3.41-6.14-6.94-6.14-.41,0-.78-.33-.78-.75s.31-.75.72-.75Zm.06,13.99c-3.03,0-5.49-2.46-5.49-5.49s2.46-5.49,5.49-5.49,5.49,2.46,5.49,5.49-2.46,5.49-5.49,5.49Zm8.27-3.54s-.01.03-.01.04,0,.01-.01.02h.01c-.09.34-.4.57-.73.57-.06,0-.12,0-.18-.02-.4-.1-.65-.5-.55-.91h0s.01-.03.01-.04c.08-.34.39-.58.73-.58.06,0,.11.01.17.02.34.09.58.4.58.74,0,.05,0,.1-.02.16Zm-8.27-4.24c-1.27,0-2.29,1.02-2.29,2.29s1.02,2.29,2.29,2.29,2.29-1.02,2.29-2.29-1.02-2.29-2.29-2.29Z"
        id="Full" />
</svg>
